<?xml version="1.0" standalone="no"?>
<!DOCTYPE svg PUBLIC "-//W3C//DTD SVG 20010904//EN"
 "http://www.w3.org/TR/2001/REC-SVG-20010904/DTD/svg10.dtd">
<svg version="1.0" xmlns="http://www.w3.org/2000/svg"
 width="1200.000000pt" height="1200.000000pt" viewBox="0 0 1200.000000 1200.000000"
 preserveAspectRatio="xMidYMid meet">
<metadata>
Created by potrace 1.11, written by Peter Selinger 2001-2013
</metadata>
<g transform="translate(0.000000,1200.000000) scale(0.100000,-0.100000)"
fill="#000000" stroke="none">
<path d="M4903 11979 c-56 -28 -126 -99 -169 -172 -19 -32 -34 -62 -34 -67 0
-14 -14 -20 -158 -60 -187 -52 -428 -133 -547 -185 -281 -122 -506 -231 -513
-247 -2 -5 -7 -8 -12 -8 -22 0 -472 -279 -500 -310 -3 -3 -32 -25 -65 -49
-225 -166 -350 -274 -580 -506 -168 -168 -194 -196 -288 -310 -32 -38 -68 -81
-79 -93 -100 -118 -328 -455 -435 -642 -137 -240 -280 -549 -373 -810 -36
-100 -95 -286 -105 -330 -30 -133 -59 -220 -74 -220 -10 0 -164 -152 -200
-195 -114 -143 -229 -378 -257 -525 -3 -14 -9 -43 -14 -65 -19 -87 -23 -196
-24 -570 0 -458 5 -525 50 -686 149 -540 624 -927 1184 -964 l86 -6 -1 66 c0
37 4 69 10 72 5 4 7 3 3 -1 -6 -7 3 -34 37 -111 7 -16 35 -79 60 -140 137
-320 389 -736 594 -981 14 -17 44 -53 66 -80 73 -90 127 -148 289 -309 172
-171 275 -262 451 -395 99 -75 386 -270 398 -270 3 0 34 -17 68 -38 104 -63
285 -154 429 -216 74 -32 146 -64 160 -71 82 -41 567 -187 694 -209 16 -3 30
-6 31 -8 3 -3 11 -217 20 -573 3 -110 8 -267 10 -350 2 -82 7 -251 10 -375 3
-124 8 -267 10 -318 l3 -93 -177 -116 c-97 -64 -286 -188 -421 -277 l-244
-161 123 -3 123 -3 111 74 c272 180 469 307 479 310 11 2 14 -44 17 -270 l1
-113 71 0 71 0 -5 185 c-4 170 -3 184 12 173 26 -20 123 -101 156 -129 16 -15
84 -72 150 -128 l120 -101 109 0 109 0 -24 21 c-50 42 -67 57 -184 154 -66 55
-131 110 -145 122 -38 33 -64 55 -111 93 -24 19 -64 53 -90 75 -25 22 -61 53
-79 68 -32 27 -34 32 -36 105 -1 42 -5 185 -8 317 -4 132 -9 303 -11 380 -2
77 -7 237 -10 355 -3 118 -8 291 -11 383 l-5 169 28 -6 c15 -3 46 -7 68 -10
22 -3 60 -8 85 -12 367 -52 821 -51 1200 2 194 26 271 41 459 85 68 16 125 28
127 26 2 -2 6 -100 9 -218 3 -117 8 -286 10 -374 3 -88 7 -234 9 -325 3 -91 8
-264 12 -385 3 -121 7 -276 9 -343 l3 -124 -206 -135 c-114 -75 -281 -185
-372 -244 -91 -59 -169 -112 -175 -116 -5 -5 -28 -20 -50 -33 l-40 -25 123 -3
124 -3 126 83 c70 46 203 133 296 195 94 62 173 110 175 107 3 -2 6 -68 8
-147 2 -78 5 -162 6 -187 l2 -45 69 0 70 0 -3 110 c-2 61 -4 143 -5 183 -2 39
-1 72 0 72 2 0 24 -18 51 -41 26 -23 57 -49 68 -58 11 -9 88 -74 172 -144
l152 -128 105 3 105 3 -65 55 c-36 30 -82 69 -102 85 -20 17 -55 46 -77 65
-22 20 -107 92 -190 160 -82 69 -156 130 -162 137 -7 6 -24 20 -38 31 -30 24
-26 -45 -50 857 -3 99 -7 241 -9 315 -3 74 -8 254 -11 400 l-6 265 110 37
c420 142 845 363 1204 625 51 38 101 75 112 84 209 173 287 242 413 369 123
123 228 241 327 365 44 55 84 104 88 110 40 49 186 264 250 368 80 131 254
467 272 527 4 14 11 30 16 35 4 6 24 53 44 105 20 52 38 96 40 98 2 2 3 -20 3
-50 0 -97 -8 -89 85 -83 533 33 994 390 1165 901 60 179 62 198 59 769 -2 286
-6 534 -10 550 -41 160 -60 217 -115 335 -50 108 -151 250 -252 350 -109 109
-185 166 -321 239 -90 48 -97 54 -108 94 -46 161 -153 466 -196 562 -12 27
-37 84 -55 125 -89 205 -263 523 -396 719 -24 36 -50 74 -57 85 -43 65 -220
297 -280 367 -122 141 -172 195 -311 334 -176 174 -197 194 -333 307 -581 483
-1267 832 -1981 1009 -193 47 -168 42 -342 74 -159 28 -327 51 -450 60 -271
20 -463 23 -700 11 -149 -8 -173 -10 -275 -19 l-60 -6 -40 52 c-23 28 -63 65
-90 82 -42 26 -59 30 -129 33 -66 2 -89 -2 -123 -19z m1267 -333 c58 -4 121
-9 140 -11 19 -2 64 -6 100 -9 36 -4 76 -8 90 -11 14 -2 45 -7 70 -10 25 -2
56 -7 70 -9 14 -3 41 -7 61 -10 20 -3 42 -8 50 -10 8 -3 31 -7 51 -10 208 -31
723 -186 938 -283 25 -11 79 -35 120 -53 170 -73 480 -244 655 -360 473 -313
882 -695 1204 -1125 46 -60 88 -117 94 -125 25 -32 166 -248 196 -300 18 -30
36 -62 41 -70 60 -95 260 -493 260 -515 0 -3 11 -28 24 -57 42 -93 161 -436
154 -443 -2 -3 -19 0 -38 5 -18 5 -77 12 -132 16 l-98 7 0 -24 c-1 -18 -5 -13
-19 21 -11 25 -36 86 -56 135 -98 236 -309 632 -385 722 -5 7 -10 15 -10 18 0
23 -264 366 -400 520 -47 53 -281 287 -350 350 -201 184 -491 394 -770 556
-87 51 -288 153 -370 189 -41 18 -97 42 -125 55 -66 29 -365 138 -415 150 -8
2 -55 16 -105 30 -150 43 -351 87 -480 105 -38 6 -77 12 -85 15 -8 2 -46 7
-85 11 -38 4 -79 8 -90 10 -11 1 -27 3 -36 3 -9 1 -25 24 -39 59 -49 119 -118
207 -204 257 -42 24 -61 29 -120 29 -50 1 -83 -5 -111 -19 -48 -23 -142 -116
-170 -168 -23 -44 -31 -46 -39 -11 -16 64 -83 179 -136 233 -64 66 -114 93
-187 99 -55 5 -73 21 -25 23 15 1 41 3 57 5 17 1 91 6 165 10 74 3 136 7 137
8 5 4 307 -2 403 -8z m-1544 -299 c0 -142 16 -244 49 -325 27 -63 26 -63 -128
-116 -1023 -352 -1886 -1065 -2432 -2011 -80 -139 -212 -408 -264 -542 -36
-90 -47 -110 -58 -101 -17 14 -151 4 -254 -18 -41 -8 -85 -18 -98 -20 -13 -3
-61 -20 -108 -38 -80 -32 -83 -33 -77 -12 27 94 68 225 77 246 6 14 11 30 13
37 1 6 32 87 69 180 61 152 171 386 253 536 115 209 339 542 473 702 135 161
221 256 345 379 567 568 1252 977 2029 1212 61 18 110 33 110 33 0 1 0 -63 1
-142z"/>
</g>
</svg>
