<svg width="354" height="384" viewBox="0 0 354 384" fill="none" xmlns="http://www.w3.org/2000/svg">
<g clip-path="url(#clip0)">
<path d="M177.215 314.434C256.518 314.434 320.805 250.134 320.805 170.817C320.805 91.4991 256.518 27.1995 177.215 27.1995C97.9118 27.1995 33.624 91.4991 33.624 170.817C33.624 250.134 97.9118 314.434 177.215 314.434Z" fill="#3F3D56"/>
<path d="M86.8156 182.345C90.3818 178.075 94.8419 174.64 99.8809 172.283C104.92 169.926 110.415 168.705 115.978 168.705C121.54 168.705 127.035 169.926 132.074 172.283C137.113 174.64 141.573 178.075 145.14 182.345C151.242 176.519 155.459 168.998 157.249 160.752C159.039 152.507 158.318 143.914 155.18 136.081C152.043 128.249 146.631 121.536 139.644 116.807C132.657 112.079 124.414 109.552 115.978 109.552C107.541 109.552 99.2984 112.079 92.3112 116.807C85.324 121.536 79.9128 128.249 76.775 136.081C73.6372 143.914 72.9167 152.507 74.7063 160.752C76.4958 168.998 80.7135 176.519 86.8156 182.345V182.345Z" fill="white"/>
<path d="M200.843 182.345C204.409 178.075 208.869 174.64 213.908 172.283C218.947 169.926 224.442 168.705 230.005 168.705C235.568 168.705 241.063 169.926 246.102 172.283C251.141 174.64 255.601 178.075 259.167 182.345C265.269 176.519 269.487 168.998 271.276 160.752C273.066 152.507 272.345 143.914 269.208 136.081C266.07 128.249 260.659 121.536 253.671 116.807C246.684 112.079 238.441 109.552 230.005 109.552C221.569 109.552 213.326 112.079 206.339 116.807C199.351 121.536 193.94 128.249 190.802 136.081C187.665 143.914 186.944 152.507 188.734 160.752C190.523 168.998 194.741 176.519 200.843 182.345Z" fill="white"/>
<path d="M101.571 151.939C109.594 151.939 116.098 145.433 116.098 137.409C116.098 129.384 109.594 122.878 101.571 122.878C93.5472 122.878 87.043 129.384 87.043 137.409C87.043 145.433 93.5472 151.939 101.571 151.939Z" fill="#3F3D56"/>
<path d="M215.594 151.939C223.618 151.939 230.122 145.433 230.122 137.409C230.122 129.384 223.618 122.878 215.594 122.878C207.571 122.878 201.067 129.384 201.067 137.409C201.067 145.433 207.571 151.939 215.594 151.939Z" fill="#3F3D56"/>
<path d="M73.7451 223.617C83.0748 223.617 90.6381 216.053 90.6381 206.721C90.6381 197.39 83.0748 189.825 73.7451 189.825C64.4153 189.825 56.8521 197.39 56.8521 206.721C56.8521 216.053 64.4153 223.617 73.7451 223.617Z" fill="#FF6584"/>
<path d="M268.015 223.617C277.344 223.617 284.908 216.053 284.908 206.721C284.908 197.39 277.344 189.825 268.015 189.825C258.685 189.825 251.122 197.39 251.122 206.721C251.122 216.053 258.685 223.617 268.015 223.617Z" fill="#FF6584"/>
<path d="M170.88 172.928L158.21 227.841L179.326 206.721L170.88 172.928Z" fill="#FF6584"/>
<path d="M235.98 384.131L221.596 372.056L221.931 384.131H217.463L217.107 371.363L197.685 384.131H189.555L216.961 366.114L215.9 328.281L215.107 299.708L219.563 299.586L220.367 328.281L221.428 366.08L242.926 384.131H235.98Z" fill="#3F3D56"/>
<path d="M168.403 384.131L154.019 372.056L154.354 384.131H149.898L149.541 371.363L130.119 384.131H121.989L149.384 366.114L148.324 328.281L147.531 299.708L151.997 299.586L152.802 328.281L153.851 366.08L175.35 384.131H168.403Z" fill="#3F3D56"/>
<path d="M179.326 16.6394C175.386 16.6394 171.91 19.7004 169.586 24.4022C167.538 17.3322 163.235 12.4154 158.21 12.4154C157.868 12.4494 157.529 12.5063 157.195 12.5858C155.264 5.03725 150.774 -0.256714 145.54 -0.256714C138.543 -0.256714 132.87 9.19917 132.87 20.8635C132.87 32.5278 138.543 41.9837 145.54 41.9837C145.881 41.9497 146.22 41.8928 146.554 41.8133C148.486 49.3618 152.975 54.6558 158.21 54.6558C162.15 54.6558 165.625 51.5947 167.949 46.893C169.997 53.963 174.3 58.8798 179.326 58.8798C186.323 58.8798 191.996 49.4239 191.996 37.7596C191.996 26.0953 186.323 16.6394 179.326 16.6394Z" fill="#3F3D56"/>
<path d="M42.4365 225.241C36.8905 225.241 31.3987 224.149 26.2748 222.026C21.151 219.903 16.4953 216.792 12.5736 212.87C8.65198 208.947 5.54116 204.291 3.41878 199.166C1.2964 194.041 0.204042 188.548 0.204042 183.001V161.881C0.204042 150.678 4.6535 139.934 12.5736 132.012C20.4938 124.091 31.2358 119.64 42.4365 119.64V119.64L42.4365 225.241Z" fill="#37F3DB"/>
<path d="M311.993 119.64C317.539 119.64 323.031 120.733 328.155 122.856C333.279 124.978 337.935 128.09 341.856 132.012C345.778 135.935 348.889 140.591 351.011 145.716C353.133 150.841 354.226 156.334 354.226 161.881V183.001C354.226 188.548 353.133 194.041 351.011 199.166C348.889 204.29 345.778 208.947 341.856 212.869C337.935 216.792 333.279 219.903 328.155 222.026C323.031 224.149 317.539 225.241 311.993 225.241V225.241V119.64H311.993Z" fill="#51EBD7"/>
<path d="M334.123 165.2H327.422C327.422 80.204 258.286 11.0545 173.306 11.0545C88.3257 11.0545 19.189 80.204 19.189 165.2H12.4883C12.4883 76.5083 84.6307 4.35254 173.306 4.35254C261.981 4.35254 334.123 76.5083 334.123 165.2Z" fill="#51EBD7"/>
</g>
<defs>
<clipPath id="clip0">
<rect width="354" height="384" fill="white"/>
</clipPath>
</defs>
</svg>
