<svg width="651" height="193" viewBox="0 0 651 193" fill="none" xmlns="http://www.w3.org/2000/svg">
<path opacity="0.9" d="M38.1806 32.5781C32.7119 32.5781 28.4775 34.6406 25.4775 38.7656C22.4775 42.8594 20.9775 48.5781 20.9775 55.9219C20.9775 71.2031 26.7119 78.8438 38.1806 78.8438C42.9931 78.8438 48.8213 77.6406 55.665 75.2344V87.4219C50.04 89.7656 43.7588 90.9375 36.8213 90.9375C26.8525 90.9375 19.2275 87.9219 13.9463 81.8906C8.66501 75.8281 6.02438 67.1406 6.02438 55.8281C6.02438 48.7031 7.32126 42.4688 9.91501 37.125C12.5088 31.75 16.2275 27.6406 21.0713 24.7969C25.9463 21.9219 31.6494 20.4844 38.1806 20.4844C44.8369 20.4844 51.5244 22.0937 58.2431 25.3125L53.5556 37.125C50.9931 35.9062 48.415 34.8438 45.8213 33.9375C43.2275 33.0312 40.6806 32.5781 38.1806 32.5781ZM107.381 51.8906H112.069C116.663 51.8906 120.053 51.125 122.241 49.5938C124.428 48.0625 125.522 45.6562 125.522 42.375C125.522 39.125 124.397 36.8125 122.147 35.4375C119.928 34.0625 116.475 33.375 111.788 33.375H107.381V51.8906ZM107.381 63.7031V90H92.85V21.4688H112.819C122.131 21.4688 129.022 23.1719 133.491 26.5781C137.959 29.9531 140.194 35.0938 140.194 42C140.194 46.0312 139.084 49.625 136.866 52.7812C134.647 55.9062 131.506 58.3594 127.444 60.1406C137.756 75.5469 144.475 85.5 147.6 90H131.475L115.116 63.7031H107.381ZM218.254 90H178.785V21.4688H218.254V33.375H193.316V48.4219H216.519V60.3281H193.316V78H218.254V90ZM297.111 90L292.142 73.6875H267.158L262.189 90H246.533L270.72 21.1875H288.486L312.767 90H297.111ZM288.673 61.5C284.079 46.7188 281.486 38.3594 280.892 36.4219C280.329 34.4844 279.923 32.9531 279.673 31.8281C278.642 35.8281 275.689 45.7188 270.814 61.5H288.673ZM373.108 32.5781C367.639 32.5781 363.405 34.6406 360.405 38.7656C357.405 42.8594 355.905 48.5781 355.905 55.9219C355.905 71.2031 361.639 78.8438 373.108 78.8438C377.921 78.8438 383.749 77.6406 390.592 75.2344V87.4219C384.967 89.7656 378.686 90.9375 371.749 90.9375C361.78 90.9375 354.155 87.9219 348.874 81.8906C343.592 75.8281 340.952 67.1406 340.952 55.8281C340.952 48.7031 342.249 42.4688 344.842 37.125C347.436 31.75 351.155 27.6406 355.999 24.7969C360.874 21.9219 366.577 20.4844 373.108 20.4844C379.764 20.4844 386.452 22.0937 393.171 25.3125L388.483 37.125C385.921 35.9062 383.342 34.8438 380.749 33.9375C378.155 33.0312 375.608 32.5781 373.108 32.5781ZM427.777 90V21.4688H442.309V90H427.777ZM544.322 55.6406C544.322 66.9844 541.509 75.7031 535.884 81.7969C530.259 87.8906 522.197 90.9375 511.697 90.9375C501.197 90.9375 493.134 87.8906 487.509 81.7969C481.884 75.7031 479.072 66.9531 479.072 55.5469C479.072 44.1406 481.884 35.4375 487.509 29.4375C493.166 23.4062 501.259 20.3906 511.791 20.3906C522.322 20.3906 530.369 23.4219 535.931 29.4844C541.525 35.5469 544.322 44.2656 544.322 55.6406ZM494.306 55.6406C494.306 63.2969 495.759 69.0625 498.666 72.9375C501.572 76.8125 505.916 78.75 511.697 78.75C523.291 78.75 529.087 71.0469 529.087 55.6406C529.087 40.2031 523.322 32.4844 511.791 32.4844C506.009 32.4844 501.65 34.4375 498.712 38.3438C495.775 42.2188 494.306 47.9844 494.306 55.6406ZM504.337 15.9844V14.7188C509.712 8.46875 513.384 3.76562 515.353 0.609375H531.384V1.59375C529.759 3.21875 526.978 5.64062 523.041 8.85938C519.134 12.0469 516.072 14.4219 513.853 15.9844H504.337ZM641.882 90H623.413L593.601 38.1562H593.179C593.772 47.3125 594.069 53.8438 594.069 57.75V90H581.085V21.4688H599.413L629.179 72.7969H629.507C629.038 63.8906 628.804 57.5938 628.804 53.9062V21.4688H641.882V90Z" fill="#51EBD7"/>
<path d="M57.541 163.176C57.541 169.621 55.2135 174.699 50.5586 178.41C45.9362 182.121 39.4909 183.977 31.2227 183.977C23.6055 183.977 16.8672 182.544 11.0078 179.68V165.617C15.8255 167.766 19.8945 169.279 23.2148 170.158C26.5677 171.037 29.6276 171.477 32.3945 171.477C35.7148 171.477 38.2539 170.842 40.0117 169.572C41.8021 168.303 42.6973 166.415 42.6973 163.908C42.6973 162.508 42.3066 161.271 41.5254 160.197C40.7441 159.09 39.5885 158.033 38.0586 157.023C36.5612 156.014 33.485 154.403 28.8301 152.189C24.4681 150.139 21.1966 148.169 19.0156 146.281C16.8346 144.393 15.0931 142.196 13.791 139.689C12.4889 137.183 11.8379 134.253 11.8379 130.9C11.8379 124.585 13.9701 119.621 18.2344 116.008C22.5312 112.395 28.4557 110.588 36.0078 110.588C39.7188 110.588 43.2507 111.027 46.6035 111.906C49.9889 112.785 53.5208 114.022 57.1992 115.617L52.3164 127.385C48.5078 125.822 45.3503 124.732 42.8438 124.113C40.3698 123.495 37.9284 123.186 35.5195 123.186C32.6549 123.186 30.4577 123.853 28.9277 125.188C27.3978 126.522 26.6328 128.264 26.6328 130.412C26.6328 131.747 26.9421 132.919 27.5605 133.928C28.179 134.904 29.1556 135.865 30.4902 136.809C31.8574 137.72 35.0638 139.38 40.1094 141.789C46.7826 144.979 51.3561 148.186 53.8301 151.408C56.304 154.598 57.541 158.521 57.541 163.176ZM176.775 147.209C176.775 159.025 173.846 168.107 167.986 174.455C162.127 180.803 153.729 183.977 142.791 183.977C131.854 183.977 123.455 180.803 117.596 174.455C111.736 168.107 108.807 158.993 108.807 147.111C108.807 135.23 111.736 126.164 117.596 119.914C123.488 113.632 131.919 110.49 142.889 110.49C153.859 110.49 162.241 113.648 168.035 119.963C173.862 126.278 176.775 135.36 176.775 147.209ZM124.676 147.209C124.676 155.184 126.189 161.19 129.217 165.227C132.244 169.263 136.769 171.281 142.791 171.281C154.868 171.281 160.906 163.257 160.906 147.209C160.906 131.128 154.9 123.088 142.889 123.088C136.867 123.088 132.326 125.122 129.266 129.191C126.206 133.228 124.676 139.234 124.676 147.209ZM296.4 183H277.162L246.107 128.996H245.668C246.286 138.534 246.596 145.337 246.596 149.406V183H233.07V111.613H252.162L283.168 165.08H283.51C283.021 155.803 282.777 149.243 282.777 145.402V111.613H296.4V183ZM420.713 147.209C420.713 159.025 417.783 168.107 411.924 174.455C406.064 180.803 397.666 183.977 386.729 183.977C375.791 183.977 367.393 180.803 361.533 174.455C355.674 168.107 352.744 158.993 352.744 147.111C352.744 135.23 355.674 126.164 361.533 119.914C367.425 113.632 375.856 110.49 386.826 110.49C397.796 110.49 406.178 113.648 411.973 119.963C417.799 126.278 420.713 135.36 420.713 147.209ZM368.613 147.209C368.613 155.184 370.127 161.19 373.154 165.227C376.182 169.263 380.706 171.281 386.729 171.281C398.805 171.281 404.844 163.257 404.844 147.209C404.844 131.128 398.838 123.088 386.826 123.088C380.804 123.088 376.263 125.122 373.203 129.191C370.143 133.228 368.613 139.234 368.613 147.209ZM492.145 143.303H497.027C501.812 143.303 505.344 142.505 507.623 140.91C509.902 139.315 511.041 136.809 511.041 133.391C511.041 130.005 509.869 127.596 507.525 126.164C505.214 124.732 501.617 124.016 496.734 124.016H492.145V143.303ZM492.145 155.607V183H477.008V111.613H497.809C507.509 111.613 514.687 113.387 519.342 116.936C523.997 120.451 526.324 125.806 526.324 133C526.324 137.199 525.169 140.943 522.857 144.23C520.546 147.486 517.275 150.041 513.043 151.896C523.785 167.945 530.784 178.312 534.039 183H517.242L500.201 155.607H492.145ZM628.225 183L623.049 166.008H597.023L591.848 183H575.539L600.734 111.32H619.24L644.533 183H628.225ZM619.436 153.312C614.65 137.915 611.949 129.208 611.33 127.189C610.744 125.171 610.321 123.576 610.061 122.404C608.986 126.571 605.91 136.874 600.832 153.312H619.436Z" fill="#3F3D56"/>
</svg>
