<svg width="1920" height="1075" viewBox="0 0 1920 1075" fill="none" xmlns="http://www.w3.org/2000/svg">
<path d="M1817.04 966.25L1268.08 974.528L1050.17 935.9H1390.35L1817.04 966.25Z" fill="#E6E6E6"/>
<path d="M1205.52 940.491C1205.52 940.491 1206.8 913.57 1233.13 916.699Z" fill="#3F3D56"/>
<path d="M1198.08 914.873C1205.36 914.873 1211.26 908.971 1211.26 901.691C1211.26 894.411 1205.36 888.509 1198.08 888.509C1190.8 888.509 1184.9 894.411 1184.9 901.691C1184.9 908.971 1190.8 914.873 1198.08 914.873Z" fill="#51EBD7"/>
<path d="M1199.65 923.888H1195.93V949.935H1199.65V923.888Z" fill="#3F3D56"/>
<path d="M1639.54 945.089C1639.54 945.089 1640.82 918.169 1667.16 921.298Z" fill="#3F3D56"/>
<path d="M1632.1 919.471C1639.38 919.471 1645.28 913.569 1645.28 906.289C1645.28 899.009 1639.38 893.108 1632.1 893.108C1624.82 893.108 1618.92 899.009 1618.92 906.289C1618.92 913.569 1624.82 919.471 1632.1 919.471Z" fill="#51EBD7"/>
<path d="M1633.67 928.487H1629.95V954.533H1633.67V928.487Z" fill="#3F3D56"/>
<path d="M1702.99 949.688C1702.99 949.688 1704.27 922.767 1730.6 925.897Z" fill="#3F3D56"/>
<path d="M1695.55 924.07C1702.83 924.07 1708.73 918.168 1708.73 910.888C1708.73 903.608 1702.83 897.706 1695.55 897.706C1688.27 897.706 1682.37 903.608 1682.37 910.888C1682.37 918.168 1688.27 924.07 1695.55 924.07Z" fill="#51EBD7"/>
<path d="M1697.12 933.085H1693.4V959.132H1697.12V933.085Z" fill="#3F3D56"/>
<path d="M1309.43 927.615C1309.43 927.615 1310.71 900.694 1337.04 903.824Z" fill="#3F3D56"/>
<path d="M1301.98 901.997C1309.26 901.997 1315.16 896.095 1315.16 888.815C1315.16 881.535 1309.26 875.633 1301.98 875.633C1294.71 875.633 1288.81 881.535 1288.81 888.815C1288.81 896.095 1294.71 901.997 1301.98 901.997Z" fill="#51EBD7"/>
<path d="M1303.56 911.012H1299.84V937.059H1303.56V911.012Z" fill="#3F3D56"/>
<path d="M1113.56 932.213C1113.56 932.213 1114.85 905.293 1141.18 908.422Z" fill="#3F3D56"/>
<path d="M1106.12 906.595C1113.4 906.595 1119.3 900.694 1119.3 893.413C1119.3 886.133 1113.4 880.232 1106.12 880.232C1098.84 880.232 1092.94 886.133 1092.94 893.413C1092.94 900.694 1098.84 906.595 1106.12 906.595Z" fill="#51EBD7"/>
<path d="M1107.7 915.611H1103.98V941.657H1107.7V915.611Z" fill="#3F3D56"/>
<path d="M1432.21 885.434C1511.52 885.434 1575.81 821.134 1575.81 741.817C1575.81 662.499 1511.52 598.199 1432.21 598.199C1352.91 598.199 1288.62 662.499 1288.62 741.817C1288.62 821.134 1352.91 885.434 1432.21 885.434Z" fill="#3F3D56"/>
<path d="M1341.82 753.345C1345.38 749.075 1349.84 745.64 1354.88 743.283C1359.92 740.926 1365.41 739.705 1370.98 739.705C1376.54 739.705 1382.04 740.926 1387.07 743.283C1392.11 745.64 1396.57 749.075 1400.14 753.345C1406.24 747.519 1410.46 739.998 1412.25 731.752C1414.04 723.507 1413.32 714.914 1410.18 707.081C1407.04 699.249 1401.63 692.536 1394.64 687.807C1387.66 683.079 1379.41 680.552 1370.98 680.552C1362.54 680.552 1354.3 683.079 1347.31 687.807C1340.32 692.536 1334.91 699.249 1331.77 707.081C1328.64 714.914 1327.92 723.507 1329.71 731.752C1331.5 739.998 1335.71 747.519 1341.82 753.345V753.345Z" fill="white"/>
<path d="M1455.84 753.345C1459.41 749.075 1463.87 745.64 1468.91 743.283C1473.95 740.926 1479.44 739.705 1485.01 739.705C1490.57 739.705 1496.06 740.926 1501.1 743.283C1506.14 745.64 1510.6 749.075 1514.17 753.345C1520.27 747.519 1524.49 739.998 1526.28 731.752C1528.07 723.507 1527.35 714.914 1524.21 707.081C1521.07 699.249 1515.66 692.536 1508.67 687.807C1501.68 683.079 1493.44 680.552 1485.01 680.552C1476.57 680.552 1468.33 683.079 1461.34 687.807C1454.35 692.536 1448.94 699.249 1445.8 707.081C1442.66 714.914 1441.94 723.507 1443.73 731.752C1445.52 739.998 1449.74 747.519 1455.84 753.345Z" fill="white"/>
<path d="M1356.57 722.939C1364.59 722.939 1371.1 716.433 1371.1 708.409C1371.1 700.384 1364.59 693.878 1356.57 693.878C1348.55 693.878 1342.04 700.384 1342.04 708.409C1342.04 716.433 1348.55 722.939 1356.57 722.939Z" fill="#3F3D56"/>
<path d="M1470.59 722.939C1478.62 722.939 1485.12 716.433 1485.12 708.409C1485.12 700.384 1478.62 693.878 1470.59 693.878C1462.57 693.878 1456.07 700.384 1456.07 708.409C1456.07 716.433 1462.57 722.939 1470.59 722.939Z" fill="#3F3D56"/>
<path d="M1328.74 794.617C1338.07 794.617 1345.64 787.053 1345.64 777.721C1345.64 768.39 1338.07 760.825 1328.74 760.825C1319.42 760.825 1311.85 768.39 1311.85 777.721C1311.85 787.053 1319.42 794.617 1328.74 794.617Z" fill="#FF6584"/>
<path d="M1523.01 794.617C1532.34 794.617 1539.91 787.053 1539.91 777.721C1539.91 768.39 1532.34 760.825 1523.01 760.825C1513.68 760.825 1506.12 768.39 1506.12 777.721C1506.12 787.053 1513.68 794.617 1523.01 794.617Z" fill="#FF6584"/>
<path d="M1425.88 743.928L1413.21 798.841L1434.33 777.721L1425.88 743.928Z" fill="#FF6584"/>
<path d="M1490.98 955.131L1476.6 943.056L1476.93 955.131H1472.46L1472.11 942.363L1452.69 955.131H1444.56L1471.96 937.114L1470.9 899.281L1470.11 870.708L1474.56 870.586L1475.37 899.281L1476.43 937.08L1497.93 955.131H1490.98Z" fill="#3F3D56"/>
<path d="M1423.4 955.131L1409.02 943.056L1409.35 955.131H1404.9L1404.54 942.363L1385.12 955.131H1376.99L1404.38 937.114L1403.32 899.281L1402.53 870.708L1407 870.586L1407.8 899.281L1408.85 937.08L1430.35 955.131H1423.4Z" fill="#3F3D56"/>
<path d="M1434.33 587.639C1430.39 587.639 1426.91 590.7 1424.59 595.402C1422.54 588.332 1418.24 583.415 1413.21 583.415C1412.87 583.449 1412.53 583.506 1412.2 583.586C1410.26 576.037 1405.77 570.743 1400.54 570.743C1393.54 570.743 1387.87 580.199 1387.87 591.863C1387.87 603.528 1393.54 612.984 1400.54 612.984C1400.88 612.95 1401.22 612.893 1401.55 612.813C1403.49 620.362 1407.98 625.656 1413.21 625.656C1417.15 625.656 1420.63 622.595 1422.95 617.893C1425 624.963 1429.3 629.88 1434.33 629.88C1441.32 629.88 1447 620.424 1447 608.76C1447 597.095 1441.32 587.639 1434.33 587.639Z" fill="#3F3D56"/>
<path d="M1297.44 796.241C1291.89 796.241 1286.4 795.149 1281.27 793.026C1276.15 790.903 1271.5 787.792 1267.57 783.87C1263.65 779.947 1260.54 775.291 1258.42 770.166C1256.3 765.041 1255.2 759.548 1255.2 754.001V732.881C1255.2 721.678 1259.65 710.934 1267.57 703.012C1275.49 695.091 1286.24 690.64 1297.44 690.64V690.64V796.241Z" fill="#37F3DB"/>
<path d="M1566.99 690.64C1572.54 690.64 1578.03 691.733 1583.15 693.856C1588.28 695.978 1592.93 699.09 1596.86 703.012C1600.78 706.935 1603.89 711.591 1606.01 716.716C1608.13 721.841 1609.23 727.334 1609.23 732.881V754.001C1609.23 759.548 1608.13 765.041 1606.01 770.166C1603.89 775.29 1600.78 779.947 1596.86 783.869C1592.93 787.792 1588.28 790.903 1583.15 793.026C1578.03 795.149 1572.54 796.241 1566.99 796.241V796.241V690.64H1566.99Z" fill="#51EBD7"/>
<path d="M1589.12 736.2H1582.42C1582.42 651.204 1513.29 582.054 1428.31 582.054C1343.33 582.054 1274.19 651.204 1274.19 736.2H1267.49C1267.49 647.508 1339.63 575.352 1428.31 575.352C1516.98 575.352 1589.12 647.508 1589.12 736.2Z" fill="#51EBD7"/>
<path d="M1198.35 607.029L1198.36 607.026L1195.21 605.715L1181.92 600.099L1177.16 598.086L1176.8 599.009L1170.4 615.16L1188.4 622.78L1188.5 622.865L1187.28 625.726C1187.12 625.987 1186.98 626.264 1186.86 626.551C1186.01 628.697 1187.62 630.831 1189.13 631.432C1190.65 632.033 1192.57 630.781 1193.42 628.635C1194.26 626.519 1193.44 623.83 1191.96 623.18L1191.96 623.178L1188.81 621.866L1178.04 617.679L1184.2 602.14L1183.28 601.779L1177.13 617.324L1175.8 616.806L1181.98 601.201L1182.14 601.27L1194.8 606.628L1194.89 606.714L1193.68 609.574C1193.51 609.836 1193.37 610.112 1193.26 610.4C1192.41 612.546 1194.01 614.68 1195.53 615.281C1197.05 615.882 1198.96 614.63 1199.81 612.484C1200.65 610.367 1199.83 607.679 1198.35 607.029Z" fill="#3F3D56"/>
<path d="M1260.65 646.68C1254.12 642.944 1255.43 634.745 1255.43 634.745C1255.26 629.418 1250.86 630.172 1250.86 630.172L1249.26 630.537C1248.52 630.192 1247.7 630.041 1246.88 630.097L1244.44 630.507C1249.99 631.811 1249.53 636.452 1249.53 636.452L1250.31 641.878L1235.78 636.014L1237.45 632.078C1237.68 631.715 1237.87 631.331 1238.03 630.932C1239.21 627.951 1236.98 624.987 1234.88 624.153C1232.77 623.318 1230.11 625.057 1228.93 628.037C1227.76 630.977 1228.9 634.711 1230.95 635.614L1230.95 635.617L1235.32 637.438L1235.36 637.335L1260.65 646.68ZM1253.27 637.146L1253.74 642.34C1252.09 640.03 1251.32 637.212 1251.56 634.385C1251.52 633.38 1251.18 632.409 1250.58 631.599C1251.5 632.186 1252.23 633.014 1252.71 633.993C1253.18 634.972 1253.38 636.063 1253.27 637.146V637.146Z" fill="#3F3D56"/>
<path d="M1149.78 569.863L1149.78 569.86L1145.41 568.038L1127.14 560.933L1131.75 556.829C1132.65 555.626 1133.99 554.819 1135.47 554.576C1136.95 554.332 1138.47 554.673 1139.71 555.525L1138.28 553.397C1138.28 553.397 1135.59 549.834 1131.82 553.604C1131.82 553.604 1127.16 560.475 1119.84 558.724L1144.84 569.307L1144.97 569.426L1143.29 573.398C1143.06 573.762 1142.86 574.146 1142.7 574.545C1141.52 577.525 1143.75 580.49 1145.86 581.324C1147.96 582.159 1150.63 580.42 1151.81 577.439C1152.97 574.5 1151.84 570.765 1149.78 569.863Z" fill="#3F3D56"/>
<path d="M1216.68 546.609L1215 550.582C1214.77 550.946 1214.57 551.329 1214.41 551.729C1213.23 554.709 1215.46 557.673 1217.57 558.508C1219.67 559.343 1222.34 557.603 1223.52 554.623C1224.68 551.684 1223.54 547.949 1221.49 547.047L1221.49 547.043L1217.12 545.222L1202.16 539.407L1210.71 517.825L1209.44 517.323L1200.89 538.913L1199.04 538.194L1207.63 516.52L1207.85 516.615L1225.43 524.058L1225.57 524.177L1223.88 528.15C1223.65 528.513 1223.45 528.897 1223.29 529.296C1222.11 532.277 1224.34 535.241 1226.45 536.076C1228.56 536.91 1231.22 535.171 1232.4 532.191C1233.56 529.251 1232.43 525.517 1230.37 524.614L1230.38 524.611L1226 522.79L1208.14 515.235L1208.14 515.235L1207.56 514.99L1200.94 512.194L1191.55 535.908L1216.55 546.491L1216.68 546.609Z" fill="#3F3D56"/>
<path d="M1137.46 425.161L1137.46 425.155L1129.94 422.02L1098.48 409.789L1106.42 402.724C1106.42 402.724 1111.7 395.395 1120.12 400.478L1117.66 396.816C1117.66 396.816 1113.03 390.683 1106.55 397.172C1106.55 397.172 1098.52 409 1085.92 405.985L1128.96 424.203L1129.18 424.408L1126.28 431.247C1125.89 431.872 1125.55 432.533 1125.27 433.22C1123.24 438.351 1127.08 443.454 1130.7 444.89C1134.33 446.327 1138.92 443.333 1140.95 438.203C1142.95 433.143 1140.99 426.714 1137.46 425.161Z" fill="#3F3D56"/>
<path d="M1160.56 527.899C1144.94 518.966 1148.06 499.362 1148.06 499.362C1147.67 486.626 1137.15 488.429 1137.15 488.429L1133.32 489.303C1131.54 488.477 1129.58 488.115 1127.63 488.25L1121.8 489.23C1135.07 492.347 1133.98 503.443 1133.98 503.443L1135.83 516.418L1101.08 502.396L1105.07 492.987C1105.62 492.118 1106.1 491.2 1106.48 490.245C1109.3 483.12 1103.97 476.032 1098.93 474.037C1093.9 472.041 1087.52 476.2 1084.7 483.325C1081.92 490.353 1084.64 499.282 1089.55 501.439L1089.55 501.448L1100 505.802L1100.08 505.556L1160.56 527.899ZM1142.91 505.102L1144.03 517.564C1137.47 508.853 1138.81 498.503 1138.81 498.503C1138.72 496.099 1137.91 493.779 1136.48 491.841C1144.02 496.352 1142.91 505.102 1142.91 505.102H1142.91Z" fill="#3F3D56"/>
</svg>
